# xmcd
#
# Track frame offsets:
#	182
#	23252
#	50032
#	63130
#	80765
#	95992
#
# Disc length: 2674 seconds
#
# Revision: 0
# Processed by: cddbd v1.4PL0 Copyright (c) Steve Scherf et al.
# Submitted via: EasyCDDAExtractor 4.6.9.1
#
DISCID=470a7006
DTITLE=Canned heat - The boogie assault-live in australia
DYEAR=1900
DGENRE=Blues
TTITLE0=on the road again
TTITLE1=amphetamine Annie
TTITLE2=going up to country
TTITLE3=let´s work together
TTITLE4=kings of boogie
TTITLE5=refried hockey boogie
EXTD=
EXTT0=
EXTT1=
EXTT2=
EXTT3=
EXTT4=
EXTT5=
PLAYORDER=
